<svg width="23" height="23" viewBox="0 0 23 23" fill="none" xmlns="http://www.w3.org/2000/svg">
<g id="Group 182">
<g id="Group">
<path id="Vector" d="M7.09192 22.1187L9.77527 19.3587C8.81693 19.1671 7.93526 18.7837 7.13025 18.2471L7.09192 22.1187Z" fill="#FFE62E"/>
<path id="Vector_2" d="M15.9085 0.881836L13.2252 3.64184C14.1835 3.8335 15.0652 4.21684 15.8702 4.7535L15.9085 0.881836Z" fill="#FFE62E"/>
<path id="Vector_3" d="M0.881958 15.9084L4.75354 15.8701C4.21689 15.0651 3.83356 14.1834 3.6419 13.2251L0.881958 15.9084Z" fill="#FFE62E"/>
<path id="Vector_4" d="M22.1188 7.0918L18.2471 7.13013C18.7454 7.93513 19.1287 8.8168 19.3587 9.77513L22.1188 7.0918Z" fill="#FFE62E"/>
<path id="Vector_5" d="M0.881958 7.0918L3.6419 9.77513C3.83356 8.8168 4.21689 7.93513 4.75354 7.13013L0.881958 7.0918Z" fill="#FFE62E"/>
<path id="Vector_6" d="M22.1188 15.9084L19.3587 13.2251C19.1671 14.1834 18.7837 15.0651 18.2471 15.8701L22.1188 15.9084Z" fill="#FFE62E"/>
<path id="Vector_7" d="M7.09186 0.881836L7.13019 4.7535C7.9352 4.25517 8.81687 3.87184 9.77521 3.64184L7.09186 0.881836Z" fill="#FFE62E"/>
<path id="Vector_8" d="M15.9086 22.1187L15.8702 18.2471C15.0652 18.7837 14.1836 19.1671 13.2252 19.3587L15.9086 22.1187Z" fill="#FFE62E"/>
</g>
<g id="Group_2">
<path id="Vector_9" d="M4.90677 16.1001L3.37341 19.6651L6.93848 18.1318C6.13346 17.5568 5.44345 16.8668 4.90677 16.1001Z" fill="#FFCE31"/>
<path id="Vector_10" d="M18.0933 6.89997L19.6266 3.33496L16.1 4.8683C16.8666 5.4433 17.5566 6.1333 18.0933 6.89997Z" fill="#FFCE31"/>
<path id="Vector_11" d="M3.60339 10.0815L0 11.4999L3.60339 12.9182C3.48839 12.4582 3.45006 11.9982 3.45006 11.4999C3.45006 11.0015 3.48839 10.5415 3.60339 10.0815Z" fill="#FFCE31"/>
<path id="Vector_12" d="M19.3966 12.9182L23 11.4999L19.3966 10.0815C19.4733 10.5415 19.5499 11.0399 19.5499 11.4999C19.5499 11.9982 19.5116 12.4582 19.3966 12.9182Z" fill="#FFCE31"/>
<path id="Vector_13" d="M6.8999 4.90687L3.33496 3.37354L4.86827 6.93854C5.44326 6.13354 6.13325 5.44354 6.8999 4.90687Z" fill="#FFCE31"/>
<path id="Vector_14" d="M16.1 18.0932L19.665 19.6265L18.1317 16.0615C17.5567 16.8665 16.8667 17.5565 16.1 18.0932Z" fill="#FFCE31"/>
<path id="Vector_15" d="M12.9184 3.60333L11.5001 0L10.0818 3.60333C10.5418 3.52667 11.0401 3.45 11.5001 3.45C11.9601 3.45 12.4584 3.48833 12.9184 3.60333Z" fill="#FFCE31"/>
<path id="Vector_16" d="M10.0818 19.3965L11.5001 22.9998L12.9185 19.3965C12.4585 19.5115 11.9985 19.5498 11.5001 19.5498C11.0018 19.5498 10.5418 19.5115 10.0818 19.3965Z" fill="#FFCE31"/>
<path id="Vector_17" d="M11.5 18.7835C15.5225 18.7835 18.7833 15.5226 18.7833 11.5001C18.7833 7.47766 15.5225 4.2168 11.5 4.2168C7.47753 4.2168 4.21667 7.47766 4.21667 11.5001C4.21667 15.5226 7.47753 18.7835 11.5 18.7835Z" fill="#FFCE31"/>
</g>
</g>
</svg>
